<svg viewBox="0 0 1200 379" width="100%" xmlns="http://www.w3.org/2000/svg" style="min-width:1200px;font-family:'Microsoft YaHei','Segoe UI',Arial,'SimSun',sans-serif"><defs><linearGradient id="un86351_tg" x1="0" y1="0" x2="0" y2="1"><stop offset="0" stop-color="#cbdcea"/><stop offset="0.55" stop-color="#bcd1e3"/><stop offset="1" stop-color="#adc5db"/></linearGradient></defs><rect x="0.0" y="0.0" width="1200.0" height="17.0" fill="#f5f7fa" stroke="#9cafc3" stroke-width="1"/><rect x="0.0" y="17.0" width="1200.0" height="32.0" fill="url(#un86351_tg)" stroke="#8fa5bd" stroke-width="1"/><text x="26.0" y="38.8" font-size="16" fill="#000000" text-anchor="start" font-weight="600">批量创建销售订单</text><rect x="0.0" y="49.0" width="1200.0" height="39.0" fill="#cfdde8" stroke="#a8b8c7" stroke-width="1"/><rect x="11.0" y="59.0" width="20.0" height="19.0" fill="#eef5ee" stroke="#7a8f7a" stroke-width="1"/><polyline points="15,68 19,72 27,63" fill="none" stroke="#2e7d32" stroke-width="2.4" stroke-linecap="round" stroke-linejoin="round"/><text x="39.0" y="72.8" font-size="12" fill="#000000" text-anchor="start">模拟运行</text><line x1="108.0" y1="57.0" x2="108.0" y2="79.0" stroke="#a8b8c7" stroke-width="1"/><text x="118.0" y="72.8" font-size="12" fill="#000000" text-anchor="start">下载模板</text><text x="182.0" y="72.8" font-size="12" fill="#000000" text-anchor="start">显示日志</text><text x="246.0" y="72.8" font-size="12" fill="#000000" text-anchor="start">返回</text><rect x="19.0" y="99.0" width="1071.0" height="249.0" fill="#deebf4" stroke="#93b2d0" stroke-width="1"/><text x="42.0" y="144.3" font-size="12" fill="#000000" text-anchor="start">导入文件名</text><rect x="327.0" y="129.0" width="380.0" height="21.0" fill="#fef09e" stroke="#d5cc98" stroke-width="1"/><text x="333.0" y="143.8" font-size="12" fill="#000000" text-anchor="start">C:\temp\SO_UPLOAD.XLSX</text><rect x="323.0" y="125.0" width="1.5" height="7.0" fill="#ab0000"/><rect x="323.0" y="147.0" width="1.5" height="7.0" fill="#ab0000"/><rect x="709.5" y="125.0" width="1.5" height="7.0" fill="#ab0000"/><rect x="709.5" y="147.0" width="1.5" height="7.0" fill="#ab0000"/><rect x="719.0" y="130.0" width="33.0" height="19.0" fill="#ffefa7" stroke="#cbbf93" stroke-width="1"/><circle cx="733.0" cy="137.0" r="3.8" fill="#fdc411" stroke="#5d5d5d" stroke-width="0.8"/><polygon points="728.0,143.0 738.0,143.0 733.0,148.0" fill="#79b51c" stroke="#5d5d5d" stroke-width="0.8"/><text x="42.0" y="170.3" font-size="12" fill="#000000" text-anchor="start">工作表</text><rect x="327.0" y="155.0" width="96.0" height="21.0" fill="#ffffff" stroke="#b5b7b7" stroke-width="1"/><text x="333.0" y="169.8" font-size="12" fill="#000000" text-anchor="start">Sheet1</text><text x="42.0" y="196.3" font-size="12" fill="#000000" text-anchor="start">列分隔方式</text><rect x="327.0" y="181.0" width="150.0" height="21.0" fill="#ffffff" stroke="#b5b7b7" stroke-width="1"/><text x="333.0" y="195.8" font-size="12" fill="#000000" text-anchor="start">XLSX 单元格</text><rect x="477.0" y="181.0" width="18.0" height="21.0" fill="#eeeeee" stroke="#b5b7b7" stroke-width="1"/><polygon points="481.0,189.0 491.0,189.0 486.0,194.0" fill="#333"/><text x="42.0" y="222.3" font-size="12" fill="#000000" text-anchor="start">处理模式</text><rect x="327.0" y="207.0" width="150.0" height="21.0" fill="#ffffff" stroke="#b5b7b7" stroke-width="1"/><text x="333.0" y="221.8" font-size="12" fill="#000000" text-anchor="start">仅创建新订单</text><rect x="477.0" y="207.0" width="18.0" height="21.0" fill="#eeeeee" stroke="#b5b7b7" stroke-width="1"/><polygon points="481.0,215.0 491.0,215.0 486.0,220.0" fill="#333"/><text x="42.0" y="248.3" font-size="12" fill="#000000" text-anchor="start">错误消息上限</text><rect x="327.0" y="233.0" width="78.0" height="21.0" fill="#ffffff" stroke="#b5b7b7" stroke-width="1"/><text x="333.0" y="247.8" font-size="12" fill="#000000" text-anchor="start">100</text><rect x="327.0" y="262.0" width="12.0" height="12.0" fill="#ffffff" stroke="#7a848e" stroke-width="1" rx="1"/><polyline points="329.5,268.5 332.0,271.0 337.0,265.0" fill="none" stroke="#1a4d1a" stroke-width="2" stroke-linecap="round" stroke-linejoin="round"/><text x="345.0" y="270.3" font-size="12" fill="#000000" text-anchor="start">首行含列标题</text><rect x="327.0" y="286.0" width="12.0" height="12.0" fill="#ffffff" stroke="#7a848e" stroke-width="1" rx="1"/><text x="345.0" y="294.3" font-size="12" fill="#000000" text-anchor="start">仅模拟运行（不写入数据库）</text><rect x="327.0" y="310.0" width="12.0" height="12.0" fill="#ffffff" stroke="#7a848e" stroke-width="1" rx="1"/><polyline points="329.5,316.5 332.0,319.0 337.0,313.0" fill="none" stroke="#1a4d1a" stroke-width="2" stroke-linecap="round" stroke-linejoin="round"/><text x="345.0" y="318.3" font-size="12" fill="#000000" text-anchor="start">遇到错误继续处理后续行</text><rect x="0.0" y="359.0" width="1200.0" height="20.0" fill="#e8f0f0" stroke="#90b0d0" stroke-width="1"/><text x="10.0" y="373.0" font-size="11" fill="#595e62" text-anchor="start">就绪</text><text x="1190.0" y="373.0" font-size="11" fill="#595e62" text-anchor="end" font-weight="600">SAP</text></svg>